HIERARCHY
ROOT mixamorig:Hips
{
	OFFSET -0.000008 104.274872 1.554316
	CHANNELS 6 Xposition Yposition Zposition Xrotation Yrotation Zrotation
	JOINT mixamorig:Spine
	{
		OFFSET -0.000005 10.181595 0.131519
		CHANNELS 6 Xposition Yposition Zposition Xrotation Yrotation Zrotation
		JOINT mixamorig:Spine1
		{
			OFFSET -0.000000 9.893959 -1.470707
			CHANNELS 6 Xposition Yposition Zposition Xrotation Yrotation Zrotation
			JOINT mixamorig:Spine2
			{
				OFFSET -0.000000 9.220757 -1.370641
				CHANNELS 6 Xposition Yposition Zposition Xrotation Yrotation Zrotation
				JOINT mixamorig:Neck
				{
					OFFSET 0.000001 16.740417 -2.049036
					CHANNELS 6 Xposition Yposition Zposition Xrotation Yrotation Zrotation
					JOINT mixamorig:Head
					{
						OFFSET 0.000000 9.617874 1.685006
						CHANNELS 6 Xposition Yposition Zposition Xrotation Yrotation Zrotation
						JOINT mixamorig:HeadTop_End
						{
							OFFSET 0.000002 22.037354 7.501101
							CHANNELS 6 Xposition Yposition Zposition Xrotation Yrotation Zrotation
							End Site
							{
								OFFSET 0.000168 2310.654297 -282.823242
							}
						}
					}
				}
				JOINT mixamorig:RightShoulder
				{
					OFFSET -4.569970 11.014908 -2.160885
					CHANNELS 6 Xposition Yposition Zposition Xrotation Yrotation Zrotation
					JOINT mixamorig:RightArm
					{
						OFFSET -10.592851 -0.524811 -2.232101
						CHANNELS 6 Xposition Yposition Zposition Xrotation Yrotation Zrotation
						JOINT mixamorig:RightForeArm
						{
							OFFSET -27.841511 0.000031 -0.000004
							CHANNELS 6 Xposition Yposition Zposition Xrotation Yrotation Zrotation
							JOINT mixamorig:RightHand
							{
								OFFSET -28.328831 -0.000015 0.000015
								CHANNELS 6 Xposition Yposition Zposition Xrotation Yrotation Zrotation
								JOINT mixamorig:RightHandThumb1
								{
									OFFSET -2.464806 -1.573990 2.681852
									CHANNELS 6 Xposition Yposition Zposition Xrotation Yrotation Zrotation
									JOINT mixamorig:RightHandThumb2
									{
										OFFSET -3.215179 -1.872803 1.924282
										CHANNELS 6 Xposition Yposition Zposition Xrotation Yrotation Zrotation
										JOINT mixamorig:RightHandThumb3
										{
											OFFSET -2.654831 -1.527969 1.512609
											CHANNELS 6 Xposition Yposition Zposition Xrotation Yrotation Zrotation
											JOINT mixamorig:RightHandThumb4
											{
												OFFSET -2.018814 -1.152008 1.108052
												CHANNELS 6 Xposition Yposition Zposition Xrotation Yrotation Zrotation
												End Site
												{
													OFFSET -188.809540 -114.533607 132.431396
												}
											}
										}
									}
								}
								JOINT mixamorig:RightHandIndex1
								{
									OFFSET -9.108284 -0.517868 2.259835
									CHANNELS 6 Xposition Yposition Zposition Xrotation Yrotation Zrotation
									JOINT mixamorig:RightHandIndex2
									{
										OFFSET -3.699989 0.000000 0.001215
										CHANNELS 6 Xposition Yposition Zposition Xrotation Yrotation Zrotation
										JOINT mixamorig:RightHandIndex3
										{
											OFFSET -2.850006 0.000031 -0.000522
											CHANNELS 6 Xposition Yposition Zposition Xrotation Yrotation Zrotation
											JOINT mixamorig:RightHandIndex4
											{
												OFFSET -2.772186 -0.000015 -0.000020
												CHANNELS 6 Xposition Yposition Zposition Xrotation Yrotation Zrotation
												End Site
												{
													OFFSET -277.218445 0.000000 -0.050231
												}
											}
										}
									}
								}
								JOINT mixamorig:RightHandMiddle1
								{
									OFFSET -9.532516 -0.000031 -0.000023
									CHANNELS 6 Xposition Yposition Zposition Xrotation Yrotation Zrotation
									JOINT mixamorig:RightHandMiddle2
									{
										OFFSET -3.700005 -0.000015 0.003713
										CHANNELS 6 Xposition Yposition Zposition Xrotation Yrotation Zrotation
										JOINT mixamorig:RightHandMiddle3
										{
											OFFSET -2.949974 0.000015 -0.002054
											CHANNELS 6 Xposition Yposition Zposition Xrotation Yrotation Zrotation
											JOINT mixamorig:RightHandMiddle4
											{
												OFFSET -2.946640 0.000000 -0.000156
												CHANNELS 6 Xposition Yposition Zposition Xrotation Yrotation Zrotation
												End Site
												{
													OFFSET -294.664337 0.000000 -0.113670
												}
											}
										}
									}
								}
								JOINT mixamorig:RightHandRing1
								{
									OFFSET -9.103600 -0.043076 -1.865134
									CHANNELS 6 Xposition Yposition Zposition Xrotation Yrotation Zrotation
									JOINT mixamorig:RightHandRing2
									{
										OFFSET -3.379288 0.000000 -0.001055
										CHANNELS 6 Xposition Yposition Zposition Xrotation Yrotation Zrotation
										JOINT mixamorig:RightHandRing3
										{
											OFFSET -2.889687 -0.000015 0.000379
											CHANNELS 6 Xposition Yposition Zposition Xrotation Yrotation Zrotation
											JOINT mixamorig:RightHandRing4
											{
												OFFSET -2.638809 -0.000015 0.000941
												CHANNELS 6 Xposition Yposition Zposition Xrotation Yrotation Zrotation
												End Site
												{
													OFFSET -263.880371 0.000000 0.516020
												}
											}
										}
									}
								}
								JOINT mixamorig:RightHandPinky1
								{
									OFFSET -8.076683 -0.486710 -3.806280
									CHANNELS 6 Xposition Yposition Zposition Xrotation Yrotation Zrotation
									JOINT mixamorig:RightHandPinky2
									{
										OFFSET -3.600014 -0.000015 -0.003747
										CHANNELS 6 Xposition Yposition Zposition Xrotation Yrotation Zrotation
										JOINT mixamorig:RightHandPinky3
										{
											OFFSET -2.099983 0.000000 -0.005739
											CHANNELS 6 Xposition Yposition Zposition Xrotation Yrotation Zrotation
											JOINT mixamorig:RightHandPinky4
											{
												OFFSET -2.115768 -0.000031 -0.003680
												CHANNELS 6 Xposition Yposition Zposition Xrotation Yrotation Zrotation
												End Site
												{
													OFFSET -211.577087 0.000000 -0.350686
												}
											}
										}
									}
								}
							}
						}
					}
				}
				JOINT mixamorig:LeftShoulder
				{
					OFFSET 4.570447 11.014725 -2.160855
					CHANNELS 6 Xposition Yposition Zposition Xrotation Yrotation Zrotation
					JOINT mixamorig:LeftArm
					{
						OFFSET 10.592371 -0.524597 -2.232119
						CHANNELS 6 Xposition Yposition Zposition Xrotation Yrotation Zrotation
						JOINT mixamorig:LeftForeArm
						{
							OFFSET 27.841532 -0.000031 0.000026
							CHANNELS 6 Xposition Yposition Zposition Xrotation Yrotation Zrotation
							JOINT mixamorig:LeftHand
							{
								OFFSET 28.328846 -0.000061 0.000022
								CHANNELS 6 Xposition Yposition Zposition Xrotation Yrotation Zrotation
								JOINT mixamorig:LeftHandThumb1
								{
									OFFSET 2.466141 -1.576172 2.681732
									CHANNELS 6 Xposition Yposition Zposition Xrotation Yrotation Zrotation
									JOINT mixamorig:LeftHandThumb2
									{
										OFFSET 3.217812 -1.872070 1.916482
										CHANNELS 6 Xposition Yposition Zposition Xrotation Yrotation Zrotation
										JOINT mixamorig:LeftHandThumb3
										{
											OFFSET 2.656029 -1.528778 1.514513
											CHANNELS 6 Xposition Yposition Zposition Xrotation Yrotation Zrotation
											JOINT mixamorig:LeftHandThumb4
											{
												OFFSET 2.020889 -1.154053 1.115139
												CHANNELS 6 Xposition Yposition Zposition Xrotation Yrotation Zrotation
												End Site
												{
													OFFSET 190.885437 -115.081749 130.048782
												}
											}
										}
									}
								}
								JOINT mixamorig:LeftHandIndex1
								{
									OFFSET 9.109314 -0.518021 2.259871
									CHANNELS 6 Xposition Yposition Zposition Xrotation Yrotation Zrotation
									JOINT mixamorig:LeftHandIndex2
									{
										OFFSET 3.699989 0.000000 -0.000322
										CHANNELS 6 Xposition Yposition Zposition Xrotation Yrotation Zrotation
										JOINT mixamorig:LeftHandIndex3
										{
											OFFSET 2.850006 0.000000 0.000352
											CHANNELS 6 Xposition Yposition Zposition Xrotation Yrotation Zrotation
											JOINT mixamorig:LeftHandIndex4
											{
												OFFSET 2.774864 -0.000031 -0.000027
												CHANNELS 6 Xposition Yposition Zposition Xrotation Yrotation Zrotation
												End Site
												{
													OFFSET 277.486267 0.000000 -0.009857
												}
											}
										}
									}
								}
								JOINT mixamorig:LeftHandMiddle1
								{
									OFFSET 9.533394 0.000061 0.000044
									CHANNELS 6 Xposition Yposition Zposition Xrotation Yrotation Zrotation
									JOINT mixamorig:LeftHandMiddle2
									{
										OFFSET 3.699989 -0.000015 -0.000231
										CHANNELS 6 Xposition Yposition Zposition Xrotation Yrotation Zrotation
										JOINT mixamorig:LeftHandMiddle3
										{
											OFFSET 2.949997 -0.000015 -0.000059
											CHANNELS 6 Xposition Yposition Zposition Xrotation Yrotation Zrotation
											JOINT mixamorig:LeftHandMiddle4
											{
												OFFSET 2.952896 0.000031 0.000063
												CHANNELS 6 Xposition Yposition Zposition Xrotation Yrotation Zrotation
												End Site
												{
													OFFSET 295.289337 0.000000 0.022810
												}
											}
										}
									}
								}
								JOINT mixamorig:LeftHandRing1
								{
									OFFSET 9.104523 -0.042999 -1.865074
									CHANNELS 6 Xposition Yposition Zposition Xrotation Yrotation Zrotation
									JOINT mixamorig:LeftHandRing2
									{
										OFFSET 3.150009 -0.000031 0.000043
										CHANNELS 6 Xposition Yposition Zposition Xrotation Yrotation Zrotation
										JOINT mixamorig:LeftHandRing3
										{
											OFFSET 2.949982 -0.000015 0.000040
											CHANNELS 6 Xposition Yposition Zposition Xrotation Yrotation Zrotation
											JOINT mixamorig:LeftHandRing4
											{
												OFFSET 2.644348 0.000000 0.000057
												CHANNELS 6 Xposition Yposition Zposition Xrotation Yrotation Zrotation
												End Site
												{
													OFFSET 264.434631 0.000000 0.012105
												}
											}
										}
									}
								}
								JOINT mixamorig:LeftHandPinky1
								{
									OFFSET 8.077789 -0.486847 -3.806259
									CHANNELS 6 Xposition Yposition Zposition Xrotation Yrotation Zrotation
									JOINT mixamorig:LeftHandPinky2
									{
										OFFSET 3.599953 0.000031 0.014727
										CHANNELS 6 Xposition Yposition Zposition Xrotation Yrotation Zrotation
										JOINT mixamorig:LeftHandPinky3
										{
											OFFSET 2.100021 0.000015 0.007705
											CHANNELS 6 Xposition Yposition Zposition Xrotation Yrotation Zrotation
											JOINT mixamorig:LeftHandPinky4
											{
												OFFSET 2.125504 0.000031 0.007517
												CHANNELS 6 Xposition Yposition Zposition Xrotation Yrotation Zrotation
												End Site
												{
													OFFSET 212.550781 0.000000 0.625752
												}
											}
										}
									}
								}
							}
						}
					}
				}
			}
		}
	}
	JOINT mixamorig:RightUpLeg
	{
		OFFSET -8.207787 -6.751648 -1.599560
		CHANNELS 6 Xposition Yposition Zposition Xrotation Yrotation Zrotation
		JOINT mixamorig:RightLeg
		{
			OFFSET -0.000002 -44.370117 0.345942
			CHANNELS 6 Xposition Yposition Zposition Xrotation Yrotation Zrotation
			JOINT mixamorig:RightFoot
			{
				OFFSET 0.000003 -44.423679 -3.043532
				CHANNELS 6 Xposition Yposition Zposition Xrotation Yrotation Zrotation
				JOINT mixamorig:RightToeBase
				{
					OFFSET -0.000002 -8.728671 10.710558
					CHANNELS 6 Xposition Yposition Zposition Xrotation Yrotation Zrotation
					JOINT mixamorig:RightToe_End
					{
						OFFSET -0.000001 -0.000679 9.278119
						CHANNELS 6 Xposition Yposition Zposition Xrotation Yrotation Zrotation
						End Site
						{
							OFFSET 0.000000 -0.067690 927.812134
						}
					}
				}
			}
		}
	}
	JOINT mixamorig:LeftUpLeg
	{
		OFFSET 8.207793 -6.751686 -1.599556
		CHANNELS 6 Xposition Yposition Zposition Xrotation Yrotation Zrotation
		JOINT mixamorig:LeftLeg
		{
			OFFSET -0.000004 -44.370014 0.346954
			CHANNELS 6 Xposition Yposition Zposition Xrotation Yrotation Zrotation
			JOINT mixamorig:LeftFoot
			{
				OFFSET -0.000001 -44.423672 -3.044401
				CHANNELS 6 Xposition Yposition Zposition Xrotation Yrotation Zrotation
				JOINT mixamorig:LeftToeBase
				{
					OFFSET -0.000002 -8.728669 10.710558
					CHANNELS 6 Xposition Yposition Zposition Xrotation Yrotation Zrotation
					JOINT mixamorig:LeftToe_End
					{
						OFFSET -0.000003 -0.000679 9.278133
						CHANNELS 6 Xposition Yposition Zposition Xrotation Yrotation Zrotation
						End Site
						{
							OFFSET 0.000000 -0.068021 927.813477
						}
					}
				}
			}
		}
	}
}
MOTION
Frames: 3
Frame Time: 0.033333
0.000006 104.270477 1.554256 0.000010 0.000003 -0.000113 -0.000005 10.181587 0.131522 0.000001 -0.000003 0.000084 -0.000000 9.893967 -1.470711 0.000001 0.000000 -0.000000 -0.000000 9.220802 -1.370642 0.000000 -0.000000 -0.000000 0.000001 16.740433 -2.049030 0.000000 -0.000000 -0.000000 0.000000 9.617859 1.685014 0.000000 0.000000 0.000000 0.000002 22.037384 7.501101 0.000000 -0.000000 0.000000 -4.569968 11.014880 -2.160881 0.000008 0.000001 -0.000038 -10.592873 -0.524771 -2.231880 76.082345 32.655029 -25.819604 -27.841515 0.000018 0.000561 -45.055869 106.101176 57.749045 -28.328819 0.000006 0.000024 -0.000318 -0.000042 0.000006 -2.464391 -1.573831 2.682316 -43.974021 -153.657564 -2.042628 -3.215259 -1.872549 1.924609 148.739923 33.461206 25.277758 -2.654958 -1.527877 1.513075 148.798909 27.269708 -30.669151 -2.018823 -1.152001 1.108077 -0.000002 -0.000004 0.000000 -9.108374 -0.517556 2.260152 109.734714 13.942708 -19.780578 -3.700046 0.000319 0.001554 108.271653 10.560145 -14.538479 -2.850071 0.000379 -0.000214 106.911073 7.866776 -10.599267 -2.772165 -0.000016 -0.000023 -0.000000 -0.000004 0.000001 -9.532586 0.000272 0.000303 108.880763 13.086523 -18.423868 -3.700059 0.000331 0.004043 109.914273 8.988410 -12.659032 -2.950041 0.000349 -0.001755 109.248452 8.430950 -11.843493 -2.946625 0.000001 -0.000160 0.000001 -0.000001 0.000000 -9.103692 -0.042743 -1.864793 108.575938 14.718643 -20.309692 -3.379336 0.000331 -0.000729 111.940489 7.705409 -11.415661 -2.889743 0.000351 0.000720 115.417069 6.288673 -10.007850 -2.638821 -0.000016 0.000933 -0.000002 -0.000003 0.000002 -8.076761 -0.486392 -3.805952 100.519354 19.187378 -22.800205 -3.600017 0.000290 -0.003443 104.404045 8.068694 -9.936028 -2.100025 0.000327 -0.005424 106.703134 4.181480 -5.329410 -2.115784 -0.000050 -0.003680 0.000001 0.000001 -0.000006 4.570446 11.014691 -2.160851 -0.000018 0.000010 -0.000021 10.592516 -0.524531 -2.232394 66.248272 -61.832193 42.687016 27.841755 -0.000059 -0.000128 234.219180 -78.925930 243.750709 28.328831 -0.000027 0.000024 0.000020 -0.000087 -0.000000 2.466197 -1.576112 2.681880 -144.759343 42.393919 -280.886311 3.217870 -1.871962 1.916561 256.021718 30.733375 43.109091 2.656077 -1.528701 1.514668 296.187356 -4.709162 16.481443 2.020899 -1.154054 1.115154 0.000004 0.000005 0.000002 9.109268 -0.517850 2.260118 264.635106 -19.178403 -21.016910 3.699925 0.000152 -0.000094 87.805374 -159.851835 159.073275 2.849960 0.000179 0.000582 89.215426 -166.153996 165.965783 2.774890 -0.000047 -0.000021 0.000001 0.000005 -0.000001 9.533364 0.000222 0.000279 266.695227 -16.143917 -17.084086 3.699944 0.000169 0.000041 264.597430 -16.037443 -17.600291 2.949979 0.000184 0.000179 -95.736658 -9.305697 -10.284624 2.952871 0.000003 0.000052 0.000002 0.000001 0.000001 9.104382 -0.042860 -1.864853 242.054746 -40.295801 -62.762977 3.150020 0.000295 -0.000091 115.841183 -5.397866 8.604674 2.949916 0.000305 -0.000124 106.276576 10.792341 -14.359597 2.644325 0.000016 0.000057 -0.000000 -0.000002 -0.000000 8.077624 -0.486659 -3.806040 231.223077 -31.193730 -60.577679 3.599900 0.000392 0.014581 127.347361 9.099476 -17.606028 2.099878 0.000340 0.007533 113.885960 17.389957 -26.065749 2.125505 0.000001 0.007513 0.000001 -0.000000 -0.000000 -8.207786 -6.751667 -1.599560 -0.077001 -0.000003 0.000080 -0.000002 -44.370110 0.345938 0.153719 -0.000000 -0.000000 0.000000 -44.423679 -3.043532 -0.076700 0.000000 -0.000002 -0.000006 -8.728667 10.710559 -0.000009 -0.000000 -0.000000 -0.000001 -0.000679 9.278123 0.000000 -0.000000 -0.000000 8.207792 -6.751710 -1.599556 -0.074518 -0.000003 0.000081 -0.000002 -44.370014 0.346960 0.148822 0.000002 0.000000 -0.000001 -44.423664 -3.044403 -0.074314 0.000000 -0.000002 -0.000004 -8.728671 10.710558 0.000007 -0.000000 -0.000000 0.000000 -0.000680 9.278137 -0.000000 0.000000 -0.000001 
0.000006 104.270477 1.554256 0.000010 0.000003 -0.000113 -0.000005 10.181587 0.131522 0.000001 -0.000003 0.000084 -0.000000 9.893967 -1.470711 0.000001 0.000000 -0.000000 -0.000000 9.220802 -1.370642 0.000000 -0.000000 -0.000000 0.000001 16.740433 -2.049030 0.000000 -0.000000 -0.000000 0.000000 9.617859 1.685014 0.000000 0.000000 0.000000 0.000002 22.037384 7.501101 0.000000 -0.000000 0.000000 -4.569968 11.014880 -2.160881 0.000008 0.000001 -0.000038 -10.592879 -0.524746 -2.231925 75.610891 25.049261 -19.557471 -27.841496 0.000010 0.000551 -45.923914 108.510928 60.967402 -28.328821 0.000020 0.000030 -0.000318 -0.000047 0.000007 -2.464392 -1.573816 2.682312 -44.200664 -153.996587 -2.469724 -3.215245 -1.872508 1.924622 149.848886 33.400424 22.398258 -2.654959 -1.527865 1.513064 148.661854 27.124353 -32.216281 -2.018823 -1.152013 1.108068 -0.000003 -0.000002 0.000004 -9.108376 -0.517532 2.260164 109.650081 13.976434 -19.797348 -3.700066 0.000316 0.001559 108.498962 10.341384 -14.297250 -2.850090 0.000380 -0.000204 107.141339 7.628345 -10.321825 -2.772168 -0.000016 -0.000014 0.000000 -0.000000 -0.000001 -9.532591 0.000278 0.000293 108.834775 13.201048 -18.566799 -3.700063 0.000348 0.004035 110.161888 8.861454 -12.536385 -2.950050 0.000356 -0.001732 109.517241 8.328300 -11.757616 -2.946637 0.000015 -0.000151 0.000000 -0.000002 -0.000001 -9.103692 -0.042744 -1.864814 108.313379 14.778670 -20.295683 -3.379322 0.000314 -0.000736 112.181090 7.532230 -11.210866 -2.889752 0.000341 0.000707 115.779356 6.075746 -9.739926 -2.638802 -0.000020 0.000938 0.000002 0.000002 0.000000 -8.076750 -0.486386 -3.805961 100.457944 18.817806 -22.337794 -3.600034 0.000287 -0.003452 104.979789 7.632339 -9.475112 -2.100020 0.000314 -0.005422 107.238799 3.884773 -4.980645 -2.115775 -0.000043 -0.003675 -0.000000 0.000001 -0.000004 4.570446 11.014691 -2.160851 -0.000018 0.000010 -0.000021 10.592517 -0.524541 -2.232390 65.042621 -62.837132 42.559179 27.841743 -0.000053 -0.000097 243.131566 -75.339719 257.024281 28.328833 -0.000026 0.000031 0.000024 -0.000089 -0.000000 2.466164 -1.576130 2.681892 -127.033459 44.505280 -294.735558 3.217850 -1.871980 1.916566 271.934447 28.091895 33.137926 2.656073 -1.528691 1.514649 303.375665 -6.188578 14.719387 2.020893 -1.154073 1.115147 0.000003 0.000005 -0.000004 9.109261 -0.517867 2.260112 266.600534 -17.891033 -18.959205 3.699935 0.000144 -0.000081 90.989615 -161.381702 161.686369 2.849978 0.000178 0.000577 93.500754 -168.752814 169.416736 2.774880 -0.000045 -0.000025 0.000001 0.000001 -0.000000 9.533367 0.000194 0.000288 269.340696 -14.486836 -14.647510 3.699952 0.000182 0.000001 265.233184 -14.160831 -15.374971 2.949990 0.000172 0.000187 -92.460660 -6.007976 -6.273472 2.952865 -0.000030 0.000051 -0.000001 -0.000001 0.000003 9.104448 -0.042856 -1.864827 262.029061 -28.849152 -32.950728 3.150017 0.000339 -0.000084 117.361856 0.349187 -0.571377 2.949893 0.000315 -0.000150 104.173383 16.374392 -20.930835 2.644318 0.000031 0.000069 0.000000 -0.000002 -0.000000 8.077694 -0.486669 -3.805990 257.737516 -21.279084 -26.560089 3.599818 0.000396 0.014573 128.475189 16.380819 -32.715677 2.099854 0.000305 0.007514 109.451165 22.689895 -31.385464 2.125491 -0.000032 0.007510 -0.000001 -0.000001 -0.000001 -8.207786 -6.751667 -1.599560 -0.077001 -0.000003 0.000080 -0.000002 -44.370110 0.345938 0.153719 -0.000000 -0.000000 0.000000 -44.423679 -3.043532 -0.076700 0.000000 -0.000002 -0.000006 -8.728667 10.710559 -0.000009 -0.000000 -0.000000 -0.000001 -0.000679 9.278123 0.000000 -0.000000 -0.000000 8.207792 -6.751710 -1.599556 -0.074518 -0.000003 0.000081 -0.000002 -44.370014 0.346960 0.148822 0.000002 0.000000 -0.000001 -44.423664 -3.044403 -0.074314 0.000000 -0.000002 -0.000004 -8.728671 10.710558 0.000007 -0.000000 -0.000000 0.000000 -0.000680 9.278137 -0.000000 0.000000 -0.000001 
0.000006 104.270477 1.554256 0.000010 0.000003 -0.000113 -0.000005 10.181587 0.131522 0.000001 -0.000003 0.000084 -0.000000 9.893967 -1.470711 0.000001 0.000000 -0.000000 -0.000000 9.220802 -1.370642 0.000000 -0.000000 -0.000000 0.000001 16.740433 -2.049030 0.000000 -0.000000 -0.000000 0.000000 9.617859 1.685014 0.000000 0.000000 0.000000 0.000002 22.037384 7.501101 0.000000 -0.000000 0.000000 -4.569968 11.014880 -2.160881 0.000008 0.000001 -0.000038 -10.592877 -0.524756 -2.231919 75.247689 26.659203 -20.698875 -27.841503 0.000003 0.000562 -46.198648 110.220791 62.903324 -28.328806 0.000021 0.000024 -0.000318 -0.000043 0.000007 -2.464413 -1.573831 2.682326 -43.789610 -154.293577 -1.522375 -3.215257 -1.872526 1.924616 149.902435 33.396596 22.260951 -2.654950 -1.527870 1.513080 149.203228 27.217573 -30.604944 -2.018827 -1.151994 1.108057 -0.000001 -0.000006 0.000002 -9.108377 -0.517561 2.260177 109.804245 14.237562 -20.218977 -3.700064 0.000317 0.001562 107.869744 10.563244 -14.436959 -2.850069 0.000376 -0.000221 106.852688 7.633915 -10.275357 -2.772156 -0.000001 -0.000015 0.000001 0.000000 0.000000 -9.532598 0.000274 0.000299 108.947179 13.396310 -18.875055 -3.700035 0.000340 0.004032 109.633839 9.040765 -12.667639 -2.950033 0.000347 -0.001744 108.712023 8.273494 -11.509176 -2.946641 0.000015 -0.000152 0.000000 -0.000001 0.000001 -9.103689 -0.042747 -1.864798 108.172629 15.173316 -20.780801 -3.379333 0.000318 -0.000719 111.661736 8.281002 -12.199727 -2.889753 0.000333 0.000712 114.985811 6.453438 -10.182898 -2.638797 0.000000 0.000942 0.000001 0.000001 0.000001 -8.076782 -0.486406 -3.805953 100.772235 19.654078 -23.456073 -3.600042 0.000283 -0.003443 103.334383 9.090527 -11.030187 -2.099992 0.000323 -0.005426 105.082433 4.753841 -5.919119 -2.115765 -0.000029 -0.003684 -0.000000 -0.000000 -0.000001 4.570446 11.014691 -2.160851 -0.000018 0.000010 -0.000021 10.592514 -0.524545 -2.232382 60.218663 -65.119939 40.638201 27.841722 -0.000084 -0.000086 244.605084 -73.031606 260.989779 28.328840 -0.000010 0.000040 0.000022 -0.000090 -0.000000 2.466174 -1.576140 2.681899 -121.132312 45.210972 -299.004590 3.217855 -1.871965 1.916563 273.538858 28.558737 32.437449 2.656066 -1.528708 1.514661 306.420755 -7.635226 13.973493 2.020879 -1.154087 1.115141 0.000002 0.000002 0.000008 9.109281 -0.517866 2.260114 267.023049 -15.993233 -16.827440 3.699946 0.000159 -0.000110 91.541399 -161.509932 161.983947 2.849965 0.000192 0.000585 95.268168 -167.504966 168.597264 2.774899 -0.000031 -0.000021 0.000001 -0.000003 0.000007 9.533360 0.000196 0.000301 270.030846 -13.487270 -13.474793 3.699942 0.000188 0.000009 266.870408 -14.579235 -15.386922 2.949971 0.000154 0.000190 -88.073520 -8.994108 -8.699818 2.952881 -0.000031 0.000052 0.000001 -0.000002 0.000000 9.104450 -0.042881 -1.864824 269.182946 -24.877033 -25.223798 3.150024 0.000337 -0.000079 121.221091 -3.504697 6.221248 2.949919 0.000314 -0.000151 104.046949 12.054909 -15.404921 2.644327 0.000033 0.000057 -0.000003 0.000004 -0.000001 8.077723 -0.486708 -3.805999 267.387044 -17.073011 -18.181508 3.599760 0.000429 0.014636 147.531157 14.446509 -46.408212 2.099850 0.000360 0.007552 121.099486 19.110647 -32.818089 2.125499 -0.000020 0.007503 -0.000002 -0.000000 -0.000001 -8.207786 -6.751667 -1.599560 -0.077001 -0.000003 0.000080 -0.000002 -44.370110 0.345938 0.153719 -0.000000 -0.000000 0.000000 -44.423679 -3.043532 -0.076700 0.000000 -0.000002 -0.000006 -8.728667 10.710559 -0.000009 -0.000000 -0.000000 -0.000001 -0.000679 9.278123 0.000000 -0.000000 -0.000000 8.207792 -6.751710 -1.599556 -0.074518 -0.000003 0.000081 -0.000002 -44.370014 0.346960 0.148822 0.000002 0.000000 -0.000001 -44.423664 -3.044403 -0.074314 0.000000 -0.000002 -0.000004 -8.728671 10.710558 0.000007 -0.000000 -0.000000 0.000000 -0.000680 9.278137 -0.000000 0.000000 -0.000001 
